<svg xmlns="http://www.w3.org/2000/svg" width="24" height="24" viewBox="0 0 24 24" fill="none">
<path d="M3.75 3C3.15326 3 2.58097 3.23705 2.15901 3.65901C1.73705 4.08097 1.5 4.65326 1.5 5.25V9.75C1.5 10.3467 1.73705 10.919 2.15901 11.341C2.58097 11.7629 3.15326 12 3.75 12H20.25C20.8467 12 21.419 11.7629 21.841 11.341C22.2629 10.919 22.5 10.3467 22.5 9.75V5.25C22.5 4.65326 22.2629 4.08097 21.841 3.65901C21.419 3.23705 20.8467 3 20.25 3H3.75ZM3.75 15C3.15326 15 2.58097 15.2371 2.15901 15.659C1.73705 16.081 1.5 16.6533 1.5 17.25V18.75C1.5 19.3467 1.73705 19.919 2.15901 20.341C2.58097 20.7629 3.15326 21 3.75 21H8.25C8.84674 21 9.41903 20.7629 9.84099 20.341C10.2629 19.919 10.5 19.3467 10.5 18.75V17.25C10.5 16.6533 10.2629 16.081 9.84099 15.659C9.41903 15.2371 8.84674 15 8.25 15H3.75ZM15.75 15C15.1533 15 14.581 15.2371 14.159 15.659C13.7371 16.081 13.5 16.6533 13.5 17.25V18.75C13.5 19.3467 13.7371 19.919 14.159 20.341C14.581 20.7629 15.1533 21 15.75 21H20.25C20.8467 21 21.419 20.7629 21.841 20.341C22.2629 19.919 22.5 19.3467 22.5 18.75V17.25C22.5 16.6533 22.2629 16.081 21.841 15.659C21.419 15.2371 20.8467 15 20.25 15H15.75Z" fill="#222222"/>
</svg>