<svg width="17" height="18" viewBox="0 0 17 18" fill="none" xmlns="http://www.w3.org/2000/svg">
<path fill-rule="evenodd" clip-rule="evenodd" d="M2.66669 0.666504C2.00365 0.666504 1.36776 0.929896 0.89892 1.39874C0.430079 1.86758 0.166687 2.50346 0.166687 3.1665V14.8332C0.166687 15.4962 0.430079 16.1321 0.89892 16.6009C1.36776 17.0698 2.00365 17.3332 2.66669 17.3332H10.1667V13.1665C10.1667 12.5035 10.4301 11.8676 10.8989 11.3987C11.3678 10.9299 12.0036 10.6665 12.6667 10.6665H16.8334V3.1665C16.8334 2.50346 16.57 1.86758 16.1011 1.39874C15.6323 0.929896 14.9964 0.666504 14.3334 0.666504H2.66669ZM12.9109 16.6007C12.6113 16.9002 12.2405 17.1187 11.8334 17.2357V13.1665C11.8334 12.9455 11.9212 12.7335 12.0774 12.5772C12.2337 12.421 12.4457 12.3332 12.6667 12.3332H16.7359C16.6189 12.7403 16.4004 13.1111 16.1009 13.4107L12.9109 16.6007ZM4.33335 3.99984C4.11234 3.99984 3.90038 4.08763 3.7441 4.24392C3.58782 4.4002 3.50002 4.61216 3.50002 4.83317C3.50002 5.05418 3.58782 5.26615 3.7441 5.42243C3.90038 5.57871 4.11234 5.6665 4.33335 5.6665H12.6667C12.8877 5.6665 13.0997 5.57871 13.2559 5.42243C13.4122 5.26615 13.5 5.05418 13.5 4.83317C13.5 4.61216 13.4122 4.4002 13.2559 4.24392C13.0997 4.08763 12.8877 3.99984 12.6667 3.99984H4.33335ZM4.33335 7.33317C4.11234 7.33317 3.90038 7.42097 3.7441 7.57725C3.58782 7.73353 3.50002 7.94549 3.50002 8.1665C3.50002 8.38752 3.58782 8.59948 3.7441 8.75576C3.90038 8.91204 4.11234 8.99984 4.33335 8.99984H12.6667C12.8877 8.99984 13.0997 8.91204 13.2559 8.75576C13.4122 8.59948 13.5 8.38752 13.5 8.1665C13.5 7.94549 13.4122 7.73353 13.2559 7.57725C13.0997 7.42097 12.8877 7.33317 12.6667 7.33317H4.33335ZM4.33335 10.6665C4.11234 10.6665 3.90038 10.7543 3.7441 10.9106C3.58782 11.0669 3.50002 11.2788 3.50002 11.4998C3.50002 11.7209 3.58782 11.9328 3.7441 12.0891C3.90038 12.2454 4.11234 12.3332 4.33335 12.3332H7.66669C7.8877 12.3332 8.09966 12.2454 8.25594 12.0891C8.41222 11.9328 8.50002 11.7209 8.50002 11.4998C8.50002 11.2788 8.41222 11.0669 8.25594 10.9106C8.09966 10.7543 7.8877 10.6665 7.66669 10.6665H4.33335Z" fill="#101828"/>
</svg>
