<svg xmlns="http://www.w3.org/2000/svg" width="24" height="24" viewBox="0 0 24 24" fill="none">
<path d="M15.5047 4.79565C15.7462 4.54642 16.0349 4.34772 16.3539 4.21114C16.673 4.07456 17.016 4.00281 17.363 4.00008C17.7101 3.99735 18.0542 4.06369 18.3753 4.19524C18.6965 4.32679 18.9883 4.52092 19.2337 4.76632C19.4791 5.01173 19.6732 5.3035 19.8048 5.62465C19.9363 5.94581 20.0026 6.28992 19.9999 6.63697C19.9972 6.98401 19.9254 7.32704 19.7889 7.64608C19.6523 7.96513 19.4536 8.25381 19.2044 8.49533L18.1796 9.52006L14.4799 5.82038L15.5047 4.79565ZM13.7746 6.52571L5.66526 14.6351C5.37248 14.9278 5.15955 15.2912 5.04776 15.6904L4.01837 19.3668C3.99458 19.452 3.99389 19.542 4.01634 19.6276C4.0388 19.7132 4.08361 19.7913 4.14617 19.8538C4.20873 19.9164 4.28681 19.9612 4.37239 19.9837C4.45797 20.0061 4.54798 20.0054 4.63321 19.9816L8.30893 18.9522C8.70844 18.8413 9.07231 18.6285 9.36494 18.3347L17.475 10.2261L13.7746 6.52571Z" fill="#222222"/>
</svg>