<svg width="40" height="40" viewBox="0 0 40 40" fill="none" xmlns="http://www.w3.org/2000/svg">
<g clip-path="url(#clip0_1170_3497)">
<path d="M20 0C18.427 0 16.8539 0.224719 15.5056 0.449438C19.3258 5.61798 22.4719 9.66292 26.5169 15.0562C28.5393 17.7528 29.2135 20.8989 27.6405 24.0449C26.0674 27.4157 22.9214 29.2135 19.3258 28.764C15.7303 28.5393 12.5843 25.8427 11.9101 22.4719C11.236 18.8764 12.5843 15.2809 15.7303 13.4831C16.1798 13.2584 16.8539 12.809 17.5281 12.3596L16.6292 11.236C14.382 8.31461 12.3596 5.61798 10.1124 2.69663C4.04494 6.06742 0 12.5843 0 20C0 31.0112 8.98876 40 20 40C31.0112 40 40 31.0112 40 20C40 8.98876 31.0112 0 20 0Z" fill="#F2F4F7"/>
<path d="M17.5282 12.5842C16.854 12.8089 16.1798 13.2583 15.7304 13.483C12.5843 15.2808 11.236 18.8763 11.9102 22.4718C12.5843 25.8426 15.7304 28.5392 19.1012 28.9887C22.6967 29.4381 26.0675 27.4156 27.4158 24.2696C28.7641 21.1235 28.3147 17.9774 26.2922 15.2808C22.472 9.66282 19.3259 5.61788 15.5057 0.449341C13.4832 0.898779 11.6855 1.57294 10.1124 2.69653C12.3596 5.61788 14.3821 8.31451 16.6293 11.2359L17.5282 12.5842Z" fill="white"/>
<path d="M32.809 15.5055C33.926 15.5055 34.8314 14.6 34.8314 13.483C34.8314 12.3661 33.926 11.4606 32.809 11.4606C31.692 11.4606 30.7865 12.3661 30.7865 13.483C30.7865 14.6 31.692 15.5055 32.809 15.5055Z" fill="white"/>
</g>
<defs>
<clipPath id="clip0_1170_3497">
<rect width="40" height="40" fill="white"/>
</clipPath>
</defs>
</svg>
