<svg width="17" height="18" viewBox="0 0 17 18" fill="none" xmlns="http://www.w3.org/2000/svg">
<path fill-rule="evenodd" clip-rule="evenodd" d="M2.66669 0.666687C2.00365 0.666687 1.36776 0.930079 0.89892 1.39892C0.430079 1.86776 0.166687 2.50365 0.166687 3.16669V14.8334C0.166687 15.4964 0.430079 16.1323 0.89892 16.6011C1.36776 17.07 2.00365 17.3334 2.66669 17.3334H10.1667V13.1667C10.1667 12.5036 10.4301 11.8678 10.8989 11.3989C11.3678 10.9301 12.0036 10.6667 12.6667 10.6667H16.8334V3.16669C16.8334 2.50365 16.57 1.86776 16.1011 1.39892C15.6323 0.930079 14.9964 0.666687 14.3334 0.666687H2.66669ZM12.9109 16.6009C12.6113 16.9004 12.2405 17.1189 11.8334 17.2359V13.1667C11.8334 12.9457 11.9212 12.7337 12.0774 12.5774C12.2337 12.4212 12.4457 12.3334 12.6667 12.3334H16.7359C16.6189 12.7405 16.4004 13.1113 16.1009 13.4109L12.9109 16.6009ZM4.33335 4.00002C4.11234 4.00002 3.90038 4.08782 3.7441 4.2441C3.58782 4.40038 3.50002 4.61234 3.50002 4.83335C3.50002 5.05437 3.58782 5.26633 3.7441 5.42261C3.90038 5.57889 4.11234 5.66669 4.33335 5.66669H12.6667C12.8877 5.66669 13.0997 5.57889 13.2559 5.42261C13.4122 5.26633 13.5 5.05437 13.5 4.83335C13.5 4.61234 13.4122 4.40038 13.2559 4.2441C13.0997 4.08782 12.8877 4.00002 12.6667 4.00002H4.33335ZM4.33335 7.33335C4.11234 7.33335 3.90038 7.42115 3.7441 7.57743C3.58782 7.73371 3.50002 7.94567 3.50002 8.16669C3.50002 8.3877 3.58782 8.59966 3.7441 8.75594C3.90038 8.91222 4.11234 9.00002 4.33335 9.00002H12.6667C12.8877 9.00002 13.0997 8.91222 13.2559 8.75594C13.4122 8.59966 13.5 8.3877 13.5 8.16669C13.5 7.94567 13.4122 7.73371 13.2559 7.57743C13.0997 7.42115 12.8877 7.33335 12.6667 7.33335H4.33335ZM4.33335 10.6667C4.11234 10.6667 3.90038 10.7545 3.7441 10.9108C3.58782 11.067 3.50002 11.279 3.50002 11.5C3.50002 11.721 3.58782 11.933 3.7441 12.0893C3.90038 12.2456 4.11234 12.3334 4.33335 12.3334H7.66669C7.8877 12.3334 8.09966 12.2456 8.25594 12.0893C8.41222 11.933 8.50002 11.721 8.50002 11.5C8.50002 11.279 8.41222 11.067 8.25594 10.9108C8.09966 10.7545 7.8877 10.6667 7.66669 10.6667H4.33335Z" fill="white"/>
</svg>
