<svg xmlns="http://www.w3.org/2000/svg" width="24" height="24" viewBox="0 0 24 24" fill="none">
<path fill-rule="evenodd" clip-rule="evenodd" d="M13.6969 5.99971C13.6969 4.34371 15.1087 3.00001 16.848 3.00001C17.2609 2.99906 17.67 3.0759 18.0519 3.22614C18.4338 3.37637 18.781 3.59707 19.0737 3.87561C19.3664 4.15416 19.5988 4.48511 19.7578 4.84956C19.9167 5.21402 19.999 5.60483 20 5.99971C20 7.6566 18.5882 9.0003 16.848 9.0003C16.4307 9.00079 16.0174 8.92196 15.6322 8.76838C15.247 8.61481 14.8976 8.38955 14.6042 8.1057L10.2419 10.9461C10.3634 11.5248 10.3038 12.1249 10.0706 12.6714L14.8536 15.6774C15.417 15.238 16.122 14.9986 16.8489 14.9997C17.2619 14.9989 17.6709 15.0758 18.0528 15.2262C18.4346 15.3765 18.7817 15.5973 19.0743 15.8759C19.367 16.1546 19.5993 16.4856 19.7581 16.8501C19.9169 17.2146 19.9991 17.6054 20 18.0003C20 19.6563 18.5882 21 16.848 21C16.0142 21.0017 15.2138 20.6866 14.6229 20.1241C14.032 19.5615 13.6989 18.7976 13.6969 18.0003C13.6962 17.5797 13.7889 17.1637 13.9689 16.7799L9.22353 13.8C8.64886 14.2778 7.91259 14.5403 7.15106 14.5389C6.73809 14.5398 6.32897 14.463 5.94707 14.3127C5.56518 14.1624 5.218 13.9416 4.92538 13.6629C4.63275 13.3843 4.40041 13.0532 4.24163 12.6887C4.08285 12.3241 4.00074 11.9332 4 11.5383C4.00086 11.1435 4.08306 10.7527 4.2419 10.3882C4.40073 10.0238 4.63309 9.69282 4.92571 9.41426C5.21832 9.1357 5.56546 8.915 5.94729 8.76475C6.32912 8.6145 6.73817 8.53766 7.15106 8.5386C8.15247 8.5386 9.04282 8.9823 9.61976 9.6735L13.8485 6.92041C13.7479 6.62298 13.6967 6.3123 13.6969 5.99971Z" fill="#222222"/>
</svg>