<svg xmlns="http://www.w3.org/2000/svg" width="50" height="50" viewBox="0 0 50 50" fill="none">
<g clip-path="url(#clip0_1256_2405)">
<path d="M6.75 49.9996C2.41656 43.1745 9.53674e-07 34.2655 0 24.9998C0 15.7341 2.41656 6.82516 6.75 0V49.9996Z" fill="url(#paint0_linear_1256_2405)"/>
<path d="M50 50C43.3696 50 37.0107 47.3661 32.3223 42.6777C27.6339 37.9893 25 31.6304 25 25C25 18.3696 27.6339 12.0107 32.3223 7.32233C37.0107 2.63392 43.3696 2.38377e-06 50 1.09279e-06L50 50Z" fill="url(#paint1_linear_1256_2405)"/>
<path d="M15.0723 43.8712C17.6275 46.5989 20.6789 48.6752 24 49.9999V0C20.6789 1.3247 17.6275 3.40098 15.0723 6.12871C10.3839 11.1337 7.75 17.9219 7.75 25C7.75 32.078 10.3839 38.8662 15.0723 43.8712Z" fill="url(#paint2_linear_1256_2405)"/>
</g>
<defs>
<linearGradient id="paint0_linear_1256_2405" x1="25" y1="0" x2="25" y2="50" gradientUnits="userSpaceOnUse">
<stop stop-color="#2F45FF"/>
<stop offset="1" stop-color="#0A0B5C"/>
</linearGradient>
<linearGradient id="paint1_linear_1256_2405" x1="25" y1="0" x2="25" y2="50" gradientUnits="userSpaceOnUse">
<stop stop-color="#2F45FF"/>
<stop offset="1" stop-color="#0A0B5C"/>
</linearGradient>
<linearGradient id="paint2_linear_1256_2405" x1="25" y1="0" x2="25" y2="50" gradientUnits="userSpaceOnUse">
<stop stop-color="#2F45FF"/>
<stop offset="1" stop-color="#0A0B5C"/>
</linearGradient>
<clipPath id="clip0_1256_2405">
<rect width="50" height="50" fill="white"/>
</clipPath>
</defs>
</svg>