<svg width="20" height="20" viewBox="0 0 20 20" fill="none" xmlns="http://www.w3.org/2000/svg">
<mask id="mask0_1170_3009" style="mask-type:luminance" maskUnits="userSpaceOnUse" x="0" y="0" width="20" height="20">
<path d="M0 0H20V20H0V0Z" fill="white"/>
<path d="M9.83153 3.61385C13.1569 5.87308 14.8077 7.50923 14.8077 8.69539C14.8077 9.84308 14.1769 10.7723 12.9646 11.4515C12.6292 11.64 12.2554 11.2731 12.4377 10.9346C12.7508 10.3515 12.6477 9.69846 12.0831 8.92154C11.4877 8.10231 10.6292 7.50616 9.49461 7.13077C9.41779 7.10537 9.35093 7.05638 9.30356 6.99077C9.25619 6.92517 9.23072 6.8463 9.23076 6.76539V3.93154C9.23084 3.86168 9.24995 3.79315 9.28604 3.73333C9.32212 3.6735 9.37382 3.62464 9.43558 3.59198C9.49734 3.55932 9.56684 3.5441 9.63659 3.54795C9.70635 3.5518 9.77375 3.57458 9.83153 3.61385ZM8.26923 15.9615C6.90769 15.9615 5.76923 15.0823 5.76923 13.9423C5.76923 12.8023 6.90769 11.9231 8.26923 11.9231C9.63076 11.9231 10.7692 12.8023 10.7692 13.9423C10.7692 15.0823 9.63076 15.9615 8.26923 15.9615Z" fill="black"/>
<path d="M10 5.38464C10.204 5.38464 10.3997 5.46569 10.5439 5.60995C10.6882 5.7542 10.7692 5.94986 10.7692 6.15387V13.8462C10.7692 14.0502 10.6882 14.2459 10.5439 14.3901C10.3997 14.5344 10.204 14.6154 10 14.6154C9.79599 14.6154 9.60034 14.5344 9.45608 14.3901C9.31182 14.2459 9.23077 14.0502 9.23077 13.8462V6.15387C9.23077 5.94986 9.31182 5.7542 9.45608 5.60995C9.60034 5.46569 9.79599 5.38464 10 5.38464Z" fill="black"/>
</mask>
<g mask="url(#mask0_1170_3009)">
<path d="M10 20C15.5228 20 20 15.5228 20 10C20 4.47715 15.5228 0 10 0C4.47715 0 0 4.47715 0 10C0 15.5228 4.47715 20 10 20Z" fill="#101828"/>
</g>
</svg>
