<svg width="74" height="74" viewBox="0 0 74 74" fill="none" xmlns="http://www.w3.org/2000/svg">
<rect width="74" height="74" rx="37" fill="url(#paint0_linear_450_5861)"/>
<g clip-path="url(#clip0_450_5861)">
<g filter="url(#filter0_d_450_5861)">
<path d="M25.53 24.0301C25.53 22.2335 25.53 21.3351 25.9046 20.8399C26.231 20.4085 26.7298 20.1416 27.2698 20.1093C27.8896 20.0723 28.637 20.5706 30.1319 21.5672L49.5857 34.5364C50.8209 35.3599 51.4386 35.7717 51.6538 36.2906C51.8419 36.7443 51.8419 37.2543 51.6538 37.708C51.4386 38.2269 50.8209 38.6387 49.5857 39.4622L30.1319 52.4314C28.637 53.428 27.8896 53.9263 27.2698 53.8893C26.7298 53.857 26.231 53.5901 25.9046 53.1587C25.53 52.6635 25.53 51.7651 25.53 49.9685V24.0301Z" fill="white"/>
</g>
</g>
<defs>
<filter id="filter0_d_450_5861" x="18.13" y="12.7074" width="41.0649" height="48.5842" filterUnits="userSpaceOnUse" color-interpolation-filters="sRGB">
<feFlood flood-opacity="0" result="BackgroundImageFix"/>
<feColorMatrix in="SourceAlpha" type="matrix" values="0 0 0 0 0 0 0 0 0 0 0 0 0 0 0 0 0 0 127 0" result="hardAlpha"/>
<feOffset/>
<feGaussianBlur stdDeviation="3.7"/>
<feComposite in2="hardAlpha" operator="out"/>
<feColorMatrix type="matrix" values="0 0 0 0 0 0 0 0 0 0 0 0 0 0 0 0 0 0 0.1 0"/>
<feBlend mode="normal" in2="BackgroundImageFix" result="effect1_dropShadow_450_5861"/>
<feBlend mode="normal" in="SourceGraphic" in2="effect1_dropShadow_450_5861" result="shape"/>
</filter>
<linearGradient id="paint0_linear_450_5861" x1="0" y1="0" x2="74" y2="74" gradientUnits="userSpaceOnUse">
<stop stop-color="#0C0EFF"/>
<stop offset="1" stop-color="#10169F"/>
</linearGradient>
<clipPath id="clip0_450_5861">
<rect width="44.4" height="44.4" fill="white" transform="translate(16.28 14.7998)"/>
</clipPath>
</defs>
</svg>
