<svg xmlns="http://www.w3.org/2000/svg" width="24" height="24" viewBox="0 0 24 24" fill="none">
<path d="M20 5.24512H4C3.80109 5.24512 3.61032 5.1661 3.46967 5.02545C3.32902 4.8848 3.25 4.69403 3.25 4.49512C3.25 4.2962 3.32902 4.10544 3.46967 3.96479C3.61032 3.82413 3.80109 3.74512 4 3.74512H20C20.1989 3.74512 20.3897 3.82413 20.5303 3.96479C20.671 4.10544 20.75 4.2962 20.75 4.49512C20.75 4.69403 20.671 4.8848 20.5303 5.02545C20.3897 5.1661 20.1989 5.24512 20 5.24512ZM20 11.2451H4C3.80109 11.2451 3.61032 11.1661 3.46967 11.0254C3.32902 10.8848 3.25 10.694 3.25 10.4951C3.25 10.2962 3.32902 10.1054 3.46967 9.96479C3.61032 9.82414 3.80109 9.74512 4 9.74512H20C20.1989 9.74512 20.3897 9.82414 20.5303 9.96479C20.671 10.1054 20.75 10.2962 20.75 10.4951C20.75 10.694 20.671 10.8848 20.5303 11.0254C20.3897 11.1661 20.1989 11.2451 20 11.2451ZM12 17.2451H4C3.80109 17.2451 3.61032 17.1661 3.46967 17.0254C3.32902 16.8848 3.25 16.694 3.25 16.4951C3.25 16.2962 3.32902 16.1054 3.46967 15.9648C3.61032 15.8241 3.80109 15.7451 4 15.7451H12C12.1989 15.7451 12.3897 15.8241 12.5303 15.9648C12.671 16.1054 12.75 16.2962 12.75 16.4951C12.75 16.694 12.671 16.8848 12.5303 17.0254C12.3897 17.1661 12.1989 17.2451 12 17.2451ZM20.72 16.2451C20.722 16.4551 20.681 16.6621 20.6 16.8551C20.5083 17.0371 20.3787 17.1973 20.22 17.3251L16.84 19.9951C16.65 20.1451 16.42 20.2351 16.18 20.2551H16.05C15.8525 20.2563 15.6574 20.2118 15.48 20.1251C15.2691 20.0158 15.09 19.8539 14.96 19.6551C14.8307 19.4518 14.7613 19.2161 14.76 18.9751V13.9951C14.7673 13.7643 14.8336 13.5393 14.9526 13.3414C15.0717 13.1436 15.2395 12.9796 15.44 12.8651C15.6462 12.7569 15.8773 12.7051 16.11 12.7151C16.342 12.7231 16.567 12.7961 16.76 12.9251L20.17 15.2051C20.3383 15.3146 20.4786 15.4622 20.5793 15.6359C20.6801 15.8096 20.7385 16.0046 20.75 16.2051L20.72 16.2451Z" fill="#222222"/>
</svg>